<svg width="55" height="55" viewBox="0 0 55 55" fill="none" xmlns="http://www.w3.org/2000/svg">
<rect width="55" height="55" rx="27.5" fill="url(#paint0_linear_354_269)"/>
<g filter="url(#filter0_d_354_269)">
<path d="M32.19 17H23.81C20.17 17 18 19.17 18 22.81V31.18C18 34.83 20.17 37 23.81 37H32.18C35.82 37 37.99 34.83 37.99 31.19V22.81C38 19.17 35.83 17 32.19 17ZM25.85 31.45C25.85 32.58 24.93 33.5 23.8 33.5C22.67 33.5 21.75 32.58 21.75 31.45C21.75 30.58 22.29 29.85 23.05 29.55V25.26C22.21 24.95 21.6 24.15 21.6 23.2C21.6 21.99 22.59 21 23.8 21C25.01 21 26 21.99 26 23.2C26 24.15 25.39 24.95 24.55 25.26V29.55C25.31 29.85 25.85 30.59 25.85 31.45ZM32.75 33.5C31.62 33.5 30.7 32.58 30.7 31.45C30.7 30.58 31.24 29.85 32 29.55V23.75C32 23.61 31.89 23.5 31.75 23.5H30.62L30.83 23.67C31.15 23.94 31.19 24.41 30.93 24.73C30.78 24.91 30.56 25 30.35 25C30.18 25 30.01 24.94 29.87 24.83L28.07 23.33C27.9 23.18 27.8 22.97 27.8 22.75C27.8 22.53 27.9 22.32 28.07 22.17L29.87 20.67C30.19 20.41 30.66 20.45 30.93 20.77C31.2 21.09 31.15 21.56 30.83 21.83L30.62 22H31.75C32.71 22 33.5 22.79 33.5 23.75V29.55C34.26 29.85 34.8 30.59 34.8 31.45C34.8 32.58 33.88 33.5 32.75 33.5Z" fill="white"/>
</g>
<defs>
<filter id="filter0_d_354_269" x="14" y="17" width="27.99" height="28" filterUnits="userSpaceOnUse" color-interpolation-filters="sRGB">
<feFlood flood-opacity="0" result="BackgroundImageFix"/>
<feColorMatrix in="SourceAlpha" type="matrix" values="0 0 0 0 0 0 0 0 0 0 0 0 0 0 0 0 0 0 127 0" result="hardAlpha"/>
<feOffset dy="4"/>
<feGaussianBlur stdDeviation="2"/>
<feComposite in2="hardAlpha" operator="out"/>
<feColorMatrix type="matrix" values="0 0 0 0 0 0 0 0 0 0 0 0 0 0 0 0 0 0 0.1 0"/>
<feBlend mode="normal" in2="BackgroundImageFix" result="effect1_dropShadow_354_269"/>
<feBlend mode="normal" in="SourceGraphic" in2="effect1_dropShadow_354_269" result="shape"/>
</filter>
<linearGradient id="paint0_linear_354_269" x1="52.9755" y1="55" x2="2.02454" y2="-1.68349e-06" gradientUnits="userSpaceOnUse">
<stop stop-color="#0FA9D5"/>
<stop offset="1" stop-color="#27F19F"/>
</linearGradient>
</defs>
</svg>
