<svg width="55" height="55" viewBox="0 0 55 55" fill="none" xmlns="http://www.w3.org/2000/svg">
<rect width="55" height="55" rx="27.5" fill="url(#paint0_linear_354_268)"/>
<g filter="url(#filter0_d_354_268)">
<path d="M37.4674 23.63L29.6712 17.3975C28.4674 16.43 26.5212 16.43 25.3287 17.3863L17.5324 23.63C16.6549 24.3275 16.0924 25.8013 16.2837 26.9038L17.7799 35.8588C18.0499 37.4563 19.5799 38.75 21.1999 38.75H33.7999C35.4087 38.75 36.9499 37.445 37.2199 35.8588L38.7162 26.9038C38.8962 25.8013 38.3337 24.3275 37.4674 23.63ZM24.5524 33.5525C23.9224 33.5525 23.4274 33.0462 23.4274 32.4275C23.4274 31.8087 23.9337 31.3025 24.5524 31.3025C25.1712 31.3025 25.6774 31.8087 25.6774 32.4275C25.6774 33.0462 25.1712 33.5525 24.5524 33.5525ZM27.9387 33.26C27.9274 33.26 27.9274 33.26 27.9162 33.26C27.4549 33.26 27.0837 32.8887 27.0724 32.4387C27.0387 30.92 26.0374 29.9188 24.5187 29.885C24.0574 29.8738 23.6862 29.4913 23.6974 29.0188C23.7087 28.5575 24.0799 28.1975 24.5412 28.1975C24.5524 28.1975 24.5524 28.1975 24.5637 28.1975C26.9824 28.2538 28.7149 29.975 28.7599 32.3938C28.7712 32.8663 28.4112 33.26 27.9387 33.26ZM31.3024 33.26C30.8299 33.26 30.4587 32.8887 30.4474 32.4275C30.4362 31.685 30.3124 30.9763 30.0874 30.3125C29.5137 28.67 28.2874 27.455 26.6449 26.87C25.9812 26.6338 25.2724 26.51 24.5299 26.51C24.0687 26.51 23.6862 26.1275 23.6974 25.655C23.6974 25.1938 24.0799 24.8225 24.5412 24.8225H24.5524C25.4862 24.8338 26.3749 24.9913 27.2074 25.2838C29.3337 26.0375 30.9199 27.6238 31.6737 29.75C31.9662 30.5825 32.1237 31.4825 32.1349 32.405C32.1462 32.8775 31.7749 33.26 31.3024 33.26Z" fill="white"/>
</g>
<defs>
<filter id="filter0_d_354_268" x="12.2463" y="16.6705" width="30.5034" height="30.0795" filterUnits="userSpaceOnUse" color-interpolation-filters="sRGB">
<feFlood flood-opacity="0" result="BackgroundImageFix"/>
<feColorMatrix in="SourceAlpha" type="matrix" values="0 0 0 0 0 0 0 0 0 0 0 0 0 0 0 0 0 0 127 0" result="hardAlpha"/>
<feOffset dy="4"/>
<feGaussianBlur stdDeviation="2"/>
<feComposite in2="hardAlpha" operator="out"/>
<feColorMatrix type="matrix" values="0 0 0 0 0 0 0 0 0 0 0 0 0 0 0 0 0 0 0.1 0"/>
<feBlend mode="normal" in2="BackgroundImageFix" result="effect1_dropShadow_354_268"/>
<feBlend mode="normal" in="SourceGraphic" in2="effect1_dropShadow_354_268" result="shape"/>
</filter>
<linearGradient id="paint0_linear_354_268" x1="52.9755" y1="55" x2="2.02454" y2="-1.68349e-06" gradientUnits="userSpaceOnUse">
<stop stop-color="#0FA9D5"/>
<stop offset="1" stop-color="#27F19F"/>
</linearGradient>
</defs>
</svg>
