<svg width="53" height="53" viewBox="0 0 53 53" fill="none" xmlns="http://www.w3.org/2000/svg">
<path d="M0 5C0 2.23858 2.23858 0 5 0H48C50.7614 0 53 2.23858 53 5V48C53 50.7614 50.7614 53 48 53H5C2.23858 53 0 50.7614 0 48V5Z" fill="url(#paint0_linear_366_270)"/>
<g filter="url(#filter0_d_366_270)">
<path d="M36.4677 22.63L28.6714 16.3975C27.4677 15.43 25.5214 15.43 24.3289 16.3863L16.5327 22.63C15.6552 23.3275 15.0927 24.8012 15.2839 25.9037L16.7802 34.8588C17.0502 36.4563 18.5802 37.75 20.2002 37.75H32.8002C34.4089 37.75 35.9502 36.445 36.2202 34.8588L37.7164 25.9037C37.8964 24.8012 37.3339 23.3275 36.4677 22.63ZM23.5527 32.5525C22.9227 32.5525 22.4277 32.0462 22.4277 31.4275C22.4277 30.8087 22.9339 30.3025 23.5527 30.3025C24.1714 30.3025 24.6777 30.8087 24.6777 31.4275C24.6777 32.0462 24.1714 32.5525 23.5527 32.5525ZM26.9389 32.26C26.9277 32.26 26.9277 32.26 26.9164 32.26C26.4552 32.26 26.0839 31.8887 26.0727 31.4387C26.0389 29.92 25.0377 28.9187 23.5189 28.885C23.0577 28.8737 22.6864 28.4913 22.6977 28.0188C22.7089 27.5575 23.0802 27.1975 23.5414 27.1975C23.5527 27.1975 23.5527 27.1975 23.5639 27.1975C25.9827 27.2537 27.7152 28.975 27.7602 31.3938C27.7714 31.8663 27.4114 32.26 26.9389 32.26ZM30.3027 32.26C29.8302 32.26 29.4589 31.8887 29.4477 31.4275C29.4364 30.685 29.3127 29.9762 29.0877 29.3125C28.5139 27.67 27.2877 26.455 25.6452 25.87C24.9814 25.6337 24.2727 25.51 23.5302 25.51C23.0689 25.51 22.6864 25.1275 22.6977 24.655C22.6977 24.1937 23.0802 23.8225 23.5414 23.8225H23.5527C24.4864 23.8337 25.3752 23.9913 26.2077 24.2837C28.3339 25.0375 29.9202 26.6237 30.6739 28.75C30.9664 29.5825 31.1239 30.4825 31.1352 31.405C31.1464 31.8775 30.7752 32.26 30.3027 32.26Z" fill="white"/>
</g>
<defs>
<filter id="filter0_d_366_270" x="11.2466" y="15.6705" width="30.5034" height="30.0795" filterUnits="userSpaceOnUse" color-interpolation-filters="sRGB">
<feFlood flood-opacity="0" result="BackgroundImageFix"/>
<feColorMatrix in="SourceAlpha" type="matrix" values="0 0 0 0 0 0 0 0 0 0 0 0 0 0 0 0 0 0 127 0" result="hardAlpha"/>
<feOffset dy="4"/>
<feGaussianBlur stdDeviation="2"/>
<feComposite in2="hardAlpha" operator="out"/>
<feColorMatrix type="matrix" values="0 0 0 0 0 0 0 0 0 0 0 0 0 0 0 0 0 0 0.1 0"/>
<feBlend mode="normal" in2="BackgroundImageFix" result="effect1_dropShadow_366_270"/>
<feBlend mode="normal" in="SourceGraphic" in2="effect1_dropShadow_366_270" result="shape"/>
</filter>
<linearGradient id="paint0_linear_366_270" x1="51.0491" y1="53" x2="1.95092" y2="-1.62227e-06" gradientUnits="userSpaceOnUse">
<stop stop-color="#0FA9D5"/>
<stop offset="1" stop-color="#27F19F"/>
</linearGradient>
</defs>
</svg>
